
<global>
amp_veltrack=0
ampeg_attack=0.005
ampeg_release=0.35
</global>

<group>
group_label=PP
lpc_hicc1=42
lpc_locc1=0

<region>
end=365870
hikey=a#2
hivel=127
lokey=a2
loop_end=285367
loop_mode=loop_continuous
loop_start=123183
loop_xfade=19652
lovel=1
lpc=29oQQjhCmcJUxzBCgL3GwMXQT0GXcT/BclFHQOqb2cAUghtB4cLkwG03nL/URL9AJHUIwOp/n0AifcbALeWRvpHMvr+mDNpAhK6SwK71RD9jOSBA9sLlvyhZjsA1R3lA
lpc_rms=-41.69
offset=27245
pitch_keycenter=a#2
sample=SoloCello_tremolo_PP_A#2.opus
</region>

<region>
end=374399
hikey=a#3
hivel=127
lokey=a3
loop_end=292020
loop_mode=loop_continuous
loop_start=126054
loop_xfade=20110
lovel=1
lpc=i1xGQbzU58FI1cZB49MkwRRBn0DHAYTABWXRP3Nxi790zjA/YjKfP6RuY7+4PQfAUOYyQMYyuT45PzLAbG/jP4vVfr8UARRAhkcuv2GrHMDOwdU/TbQHPvgOvT4cdBq/
lpc_rms=-50.73
offset=11426
pitch_keycenter=a#3
sample=SoloCello_tremolo_PP_A#3.opus
</region>

<region>
end=369917
hikey=a#4
hivel=127
lokey=a4
loop_end=288524
loop_mode=loop_continuous
loop_start=124545
loop_xfade=19869
lovel=1
lpc=OvuwQFxnRsG75EVBgUMAwShht0B9lZ/AFMeNQF/ShMAHkhBAYmSMvQyhoD7n9KS/BEmoP2G44r73Ar49PJYwv4RLfD+s0by9C0BOvwkwPj8ddvi9g78LvyVXOj8IkKy+
lpc_rms=-50.65
offset=22579
pitch_keycenter=a#4
sample=SoloCello_tremolo_PP_A#4.opus
</region>

<region>
end=362806
hivel=127
key=c2
loop_end=282978
loop_mode=loop_continuous
loop_start=122151
loop_xfade=19487
lovel=1
lpc=rRXdQagDZsJZFwZCY0nMwNjlLUHNmCfBXfqYQEsn0MAjy+lAZ5aZwEvhRL/Rj2FASVoFwFMVuEBnBsLApKwrP4mRy7+NvbNAMLWVwGHwIkCnQ5m/W+/rP6Fhi8DQvSZA
lpc_rms=-45.05
offset=18462
sample=SoloCello_tremolo_PP_C2.opus
</region>

<region>
end=369331
hikey=c3
hivel=127
lokey=b2
loop_end=288067
loop_mode=loop_continuous
loop_start=124348
loop_xfade=19838
lovel=1
lpc=lEGjQdhFR8KJvyZCYwBawd/OwkAbxwPBU5bGQBzapsARNY5AJsgqwJzGpz/3kr+/F3uOv6rO8UAed+fAjMDqP1HxIsDEGLVARU8PwIScJsDVKRRA0710Plnhrr8eDzk/
lpc_rms=-46.97
offset=19190
pitch_keycenter=c3
sample=SoloCello_tremolo_PP_C3.opus
</region>

<region>
end=370906
hikey=c4
hivel=127
lokey=b3
loop_end=289295
loop_mode=loop_continuous
loop_start=124878
loop_xfade=19922
lovel=1
lpc=QOVIQfa7+sFZJgFCKIyiwce2OUG4t+HAsCCNQAiAa8CgnRJAyCwlP7c7P8CyCARAJEcLvkzrkz8+ahTAqRe5P5EYL8BqtJtAV3YewNixvb8bhApAR8Whvp86mb2VP4y+
lpc_rms=-47.81
offset=21471
pitch_keycenter=c4
sample=SoloCello_tremolo_PP_C4.opus
</region>

<region>
end=368867
hikey=c5
hivel=127
lokey=b4
loop_end=287705
loop_mode=loop_continuous
loop_start=124192
loop_xfade=19813
lovel=1
lpc=pSPyQPWXg8Hj5nVBBO4fwWet2kAkcI7APVV4QFj7mcCV9FxAfWZnvznD5T+Ppz/AtnfqPxW91b6+/KI+jDHRvbKKO78lq9M9a6rNP7ORq78MVBI/x6juv1Ft9T/Q+gK/
lpc_rms=-49.17
offset=21637
pitch_keycenter=c5
sample=SoloCello_tremolo_PP_C5.opus
</region>

<region>
end=352967
hikey=d2
hivel=127
lokey=c#2
loop_end=275303
loop_mode=loop_continuous
loop_start=118838
loop_xfade=18959
lovel=1
lpc=Xx/fQWhpbsIRsRxCe2NSwSNPgkFSR1vBGoh3QMtgVsDTur5A3pnOwM09YkDWvwC/7d7nv5f/1UADEr7AfOc1P36Wkb+Ss3xAHaDqvzZUKL6DBe2/lnGFQHpCkMDyrQRA
lpc_rms=-45.43
offset=24384
pitch_keycenter=d2
sample=SoloCello_tremolo_PP_D2.opus
</region>

<region>
end=372723
hikey=d3
hivel=127
lokey=c#3
loop_end=290712
loop_mode=loop_continuous
loop_start=125490
loop_xfade=20020
lovel=1
lpc=YTqzQTyqWMK5ey9CpfhbwaPgCUFX7zPBzKzkQGpbn8Av3B5AT/GIvjydVz+ozz7ARqgVQJncMUD9+33AUodpP2lVMMD9K5NAknZ2vYjiD8BOH+y+vB7nP0+FjL+YWfc+
lpc_rms=-45.88
offset=25662
pitch_keycenter=d3
sample=SoloCello_tremolo_PP_D3.opus
</region>

<region>
end=370479
hikey=d4
hivel=127
lokey=c#4
loop_end=288962
loop_mode=loop_continuous
loop_start=124735
loop_xfade=19899
lovel=1
lpc=JK49QUlF38HFtdtB/TONwUglPUGDzRnBaij8QEs4sMCgLLk/QMD6PyyQr78U55+/2umZPzulHD+L0Tg7u1D0vy7V4j9k6xk/lp6wv9bq0j+T5R3Alx0NQOaeWL8frSQ7
lpc_rms=-47.07
offset=20719
pitch_keycenter=d4
sample=SoloCello_tremolo_PP_D4.opus
</region>

<region>
end=323023
hikey=d5
hivel=127
lokey=c#5
loop_end=251948
loop_mode=loop_continuous
loop_start=108757
loop_xfade=17350
lovel=1
lpc=Hgk0Qe3VvMGzIrVBw6yLwWYdS0FSyuHAbJyjQLZsq8Dum3hAD5IjwFK5iEAEecvA9tqfQL4pK8CHN+Y/kbqjvwETob3OhQ5AMGoiwH8Zm0D4jM3Ar02fQLTXG8CqRyE/
lpc_rms=-42.29
offset=15657
pitch_keycenter=d5
sample=SoloCello_tremolo_PP_D5.opus
</region>

<region>
end=367447
hikey=e2
hivel=127
lokey=d#2
loop_end=286597
loop_mode=loop_continuous
loop_start=123714
loop_xfade=19737
lovel=1
lpc=wpP6Qe1hjMLpnz5CHB9HwVcChUGlhqHBKpQNQYLiRcAIhqtAsXkmwepEGkGIc1TAsehjv3anwUDrxfPAHYY/QPbzNL8U7AVAD4wowD8uOkDd4GLAEtqhQEdR08Cx7VJA
lpc_rms=-45.73
offset=8092
pitch_keycenter=e2
sample=SoloCello_tremolo_PP_E2.opus
</region>

<region>
end=353331
hikey=e3
hivel=127
lokey=d#3
loop_end=275587
loop_mode=loop_continuous
loop_start=118961
loop_xfade=18978
lovel=1
lpc=IlytQa8PX8JG2VlCt6fVwbsYFEERqITAZwShQHZ0JcFPjERBnoeywHuL/L/6Yng/WWH+vo4D6UAbQhbBC4qiQH2BnsB6atZAgqKCwGViB0CAamnAJ7ijQHKHW8Bqh1A/
lpc_rms=-44.27
offset=11997
pitch_keycenter=e3
sample=SoloCello_tremolo_PP_E3.opus
</region>

<region>
end=353823
hikey=e4
hivel=127
lokey=d#4
loop_end=275971
loop_mode=loop_continuous
loop_start=119127
loop_xfade=19005
lovel=1
lpc=s1trQe3tFcIneCBCSpLUweNYiUEeTlXBdtH+QJO4aMDJgBk8qDmlQNvttsBj8FA+ha4JQJ4FZL5BYfA/Pq+EwN5vO0DmMjm/qOSFPwaQvb830Mg9Y9aCP6ttpL9F/BE/
lpc_rms=-46.58
offset=13083
pitch_keycenter=e4
sample=SoloCello_tremolo_PP_E4.opus
</region>

<region>
end=339426
hikey=e5
hivel=127
lokey=d#5
loop_end=264742
loop_mode=loop_continuous
loop_start=114279
loop_xfade=18232
lovel=1
lpc=Rgp7QY4xDsIUrxBC22PHwcyAYkHk8JjAkMXkP7jbEsBR9RxAJPCXvyBgK0ClmOvAMW4gQZzE+8DGB4xAh0kNwBeZUz86Wk1Ai7kkwG9UAkDF8LbA9JayQJskDMCvI6g/
lpc_rms=-39.97
offset=4668
pitch_keycenter=e5
sample=SoloCello_tremolo_PP_E5.opus
</region>

<region>
end=371548
hikey=f#2
hivel=127
lokey=f2
loop_end=289796
loop_mode=loop_continuous
loop_start=125094
loop_xfade=19957
lovel=1
lpc=mt3HQdN4ScISy+pB6lj7wBjLNEEqdh7B556zQNIlB8EjryZBx5XzwFI8mr5rhHtAyM+2v03SgkA6s27ALba9v1twA7+VWcpAz8nGwL+OJ0ASzcc+LYQhP8yVmcDBHFBA
lpc_rms=-45.25
offset=19179
pitch_keycenter=f#2
sample=SoloCello_tremolo_PP_F#2.opus
</region>

<region>
end=338906
hikey=f#3
hivel=127
lokey=f3
loop_end=264336
loop_mode=loop_continuous
loop_start=114104
loop_xfade=18204
lovel=1
lpc=In6CQevrHcLQeglCl3RTwSQlnUA37p/AGXmCQPKgfcDUpm9A5CmRvx1Ljb9tY2W/U/r1P6yRyT8TKR7AUcgGvrD63r5Tbl1AmAodwLVEIb9PZGc/P4XnPb3KUz7d//a+
lpc_rms=-49.00
offset=12812
pitch_keycenter=f#3
sample=SoloCello_tremolo_PP_F#3.opus
</region>

<region>
end=351240
hikey=f#4
hivel=127
lokey=f4
loop_end=273956
loop_mode=loop_continuous
loop_start=118257
loop_xfade=18866
lovel=1
lpc=w9kNQeYarMGjhbNBucx8wQvIPUGxqCPBWG0DQTpCosBouzI/vN4tQL6iBMDFwV6/2PWnP4VjnT+uMaq/SUO9v/wwGUBCHqq/8EajP8QBur9bWm8+kw6wPrF+Cj8Tov6+
lpc_rms=-49.87
offset=7327
pitch_keycenter=f#4
sample=SoloCello_tremolo_PP_F#4.opus
</region>

<region>
end=304453
hikey=G6
hivel=127
lokey=f5
loop_end=237464
loop_mode=loop_continuous
loop_start=102504
loop_xfade=16353
lovel=1
lpc=rw1CQWMJscGkv5pBPDKGwZ+2X0Ha7xXBzgjlQCGof8AKuwFAgqpTPnguir9oCsa+AgMIQB/mRsAV7ntAdw3ov/Cwwr9ViVVA2KLiv/QqWb/6r0JAMp5owHZbiUBPdAnA
lpc_rms=-41.50
offset=4747
pitch_keycenter=F#5
sample=SoloCello_tremolo_PP_F#5.opus
</region>

<region>
end=370598
hikey=g#2
hivel=127
lokey=g2
loop_end=289055
loop_mode=loop_continuous
loop_start=124775
loop_xfade=19906
lovel=1
lpc=XT78QfuDgcIaOxNCahfZwFU1S0Gf2UbBo8WoQBC58cAxVSVBIcAGwRppB0DBDI8/M3kNP29DL0CcblzAy1OCvqvUoL8I8qpAZBGXwN08mT9niylAFfhRwO7QBsAdmzlA
lpc_rms=-44.68
offset=14694
pitch_keycenter=g#2
sample=SoloCello_tremolo_PP_G#2.opus
</region>

<region>
end=371684
hikey=g#3
hivel=127
lokey=g3
loop_end=289902
loop_mode=loop_continuous
loop_start=125140
loop_xfade=19964
lovel=1
lpc=/d+5QY02ZMIaCUJCMc6GwaNe90CRsPzAtdUuQHORAcAStb8/oAw/QFHMlMBh1Y0/ecqoPxpI5D9vBG/AvZV8P+ep578bEstAJhUvwOXeWsDy+qQ/KR9LQMCNBcCJeOy9
lpc_rms=-46.46
offset=8488
pitch_keycenter=g#3
sample=SoloCello_tremolo_PP_G#3.opus
</region>

<region>
end=373994
hikey=g#4
hivel=127
lokey=g4
loop_end=291704
loop_mode=loop_continuous
loop_start=125918
loop_xfade=20088
lovel=1
lpc=9hgtQS/9z8Hb6d5BcZCowbLXcUE3wDPBKcEdQauSDMHLOrBAw24lwH33b0D0KLbAcE6jQNIXXMAGLvY/M5/lv5LB3D/1/pS+oKukP5dKfMADppJAa/lkwIITLUBbW7+/
lpc_rms=-47.21
offset=18523
pitch_keycenter=g#4
sample=SoloCello_tremolo_PP_G#4.opus
</region>
</group>

<group>
group_label=MF
lpc_hicc1=84
lpc_locc1=43

<region>
end=287001
hikey=a#2
hivel=127
lokey=a2
loop_end=223852
loop_mode=loop_continuous
loop_start=96629
loop_xfade=15415
lovel=1
lpc=H+AbQq1bt8KrdIhC42WCwTGVDkFarTjB42IQP7gQHEHzbwfBXuvzwJcookE+PnzBbNODPprkN0EKctbAZLiqv29/GMBii71AotaZv+Mhvb8EBOy/vZfNQHoP7MDvKFFA
lpc_rms=-23.49
offset=367
pitch_keycenter=a#2
sample=SoloCello_tremolo_MF_A#2.opus
</region>

<region>
end=295194
hikey=a#3
hivel=127
lokey=a3
loop_end=230242
loop_mode=loop_continuous
loop_start=99387
loop_xfade=15856
lovel=1
lpc=Obq1QacFUMKqNC1CRFaiweyRbUF/l3DBn8wRQX5Ri8B/afZACRM9wfPyHEHN4/DAhQCOQFql3z/BLdDAP6KWQJFpw74+cYI/LQ2ov8pgJ78wGxi/9ONYQH35ZcCZbs4/
lpc_rms=-27.26
offset=138
pitch_keycenter=a#3
sample=SoloCello_tremolo_MF_A#3.opus
</region>

<region>
end=329160
hikey=a#4
hivel=127
lokey=a4
loop_end=256735
loop_mode=loop_continuous
loop_start=110823
loop_xfade=17680
lovel=1
lpc=uHafQPCHKMFOLiVBeVLxwKfSz0BUOsXAPNGaQGygacAi6ktAIOshwLhi1T/iZji/icaZPRn7Fz/mq62/UUPzPwTdGsAyDAlA72aPvzdGGz/qP0m+tGiMPXk49j22XIS9
lpc_rms=-35.11
offset=256
pitch_keycenter=a#4
sample=SoloCello_tremolo_MF_A#4.opus
</region>

<region>
end=298877
hivel=127
key=c2
loop_end=233115
loop_mode=loop_continuous
loop_start=100627
loop_xfade=16053
lovel=1
lpc=Eg5lQlhRFsMDhQtD6lSKwgleUkJj5yrCnbSNQeyoTMGaOEdBkN1Owd27pUG00XrBeiCgwOeRt0FnksPBs7MwQbSVF0DND46/fvmJwDGIF7+F+Vo+N65YQTrVmcHs+ARB
lpc_rms=-22.94
offset=434
sample=SoloCello_tremolo_MF_C2.opus
</region>

<region>
end=288342
hikey=c3
hivel=127
lokey=b2
loop_end=224898
loop_mode=loop_continuous
loop_start=97080
loop_xfade=15488
lovel=1
lpc=tloWQqnJu8KXWqJCX34NwgRRzUENvpvB7Ce1vxdERUEl3anAwAYKwWVJNUHzZAHBm5HGQJRcsEDBln/BmRxLQcujdcBBqwTAVmQJvx0NtEBSqSHAqxjPP8E81cB+M4tA
lpc_rms=-24.33
pitch_keycenter=c3
sample=SoloCello_tremolo_MF_C3.opus
</region>

<region>
end=288804
hikey=c4
hivel=127
lokey=b3
loop_end=225258
loop_mode=loop_continuous
loop_start=97236
loop_xfade=15512
lovel=1
lpc=OWoOQmw6q8KqdZlCWdsrwncRCEI9DebBl2x8QUzgCMFu01BBGee3wR3IwUEuP4nBYVwnQYmE2b/8frfAwU/EQG4kQsDbijnAG34BQcWYt8AY6Js/1vghQHrbo8ApYzdA
lpc_rms=-21.33
offset=417
pitch_keycenter=c4
sample=SoloCello_tremolo_MF_C4.opus
</region>

<region>
end=348851
hikey=c5
hivel=127
lokey=b4
loop_end=272093
loop_mode=loop_continuous
loop_start=117453
loop_xfade=18738
lovel=1
lpc=ozEGQemvkcEvloRBFA8rwcNwD0FmuPvAerWzQF3lN8D2C8M/YWcmv7DOH77d9ay+fQMwvtF5xT9Mrqy/ermXP/wX27/JjhFAU5afv+Stwr7BAi0/w5FgPmSeIb+HmCA/
lpc_rms=-31.13
offset=72
pitch_keycenter=c5
sample=SoloCello_tremolo_MF_C5.opus
</region>

<region>
end=303959
hikey=d2
hivel=127
lokey=c#2
loop_end=237079
loop_mode=loop_continuous
loop_start=102338
loop_xfade=16326
lovel=1
lpc=HtwOQnzmtMITTaJCTJIcwpss5kFDbLfBZd0yQYK8DcH/YK1AruSvwDO4MkHNJx3BIY08QH+OCUErXmzBc+2zQPXRhT8o54VABfSBwL1f+7+Z/f4/YHToP875fMAo4gRA
lpc_rms=-24.99
pitch_keycenter=d2
sample=SoloCello_tremolo_MF_D2.opus
</region>

<region>
end=292077
hikey=d3
hivel=127
lokey=c#3
loop_end=227811
loop_mode=loop_continuous
loop_start=98338
loop_xfade=15688
lovel=1
lpc=nSWyQRspTcJKjxZCiIEBwayHZkCMU53AGjZCwHX59UA2lMy/jRIrwXBvaEEKkuDAioUHv26UX0ADHinACuchQISeZcC0H/o+IEh6QCQ8T78KtUTAP4NVPz7bQz/NAmC+
lpc_rms=-27.38
offset=6119
pitch_keycenter=d3
sample=SoloCello_tremolo_MF_D3.opus
</region>

<region>
end=296655
hikey=d4
hivel=127
lokey=c#4
loop_end=231382
loop_mode=loop_continuous
loop_start=99879
loop_xfade=15934
lovel=1
lpc=DPNAQUjX3MGWCMpBkbJ3webLSEEgckLBz3cFQbQypcBTodRAPTMIwfdc9kDIgrzAbHFKQApYvz8oh7XAtyepQOk8i8A91cxALPmpwLGj0D+bFZA+0QYaP9Dk3r9lr10/
lpc_rms=-28.74
offset=209
pitch_keycenter=d4
sample=SoloCello_tremolo_MF_D4.opus
</region>

<region>
end=304613
hikey=d5
hivel=127
lokey=c#5
loop_end=237589
loop_mode=loop_continuous
loop_start=102558
loop_xfade=16362
lovel=1
lpc=VSL5QDD5ZsGqAjVBvGnPwIFDcEDG9aC/SW9PP6DOCcA05nZA6wJ3wKsVD0DAdmO/NsgevvlLrT8CZs2/srFQP4NT7b1+/GC+z5mMPwu2tb4lDOg+OFCPPgX9xL/K8IY/
lpc_rms=-32.60
offset=454
pitch_keycenter=d5
sample=SoloCello_tremolo_MF_D5.opus
</region>

<region>
end=295328
hikey=e2
hivel=127
lokey=d#2
loop_end=230347
loop_mode=loop_continuous
loop_start=99432
loop_xfade=15863
lovel=1
lpc=3qsnQpogzsJ9aqVCHNTWwfLbh0GvP2nBJRH/QFt3f8EAqWtBGHfGwCWHr0ABmHPAah/lv2A0J0H7LCzBUyaOvophyz/asRlBO+Y2wYuYzj9wmWJAARLcP/Gw7sBB0IJA
lpc_rms=-24.00
pitch_keycenter=e2
sample=SoloCello_tremolo_MF_E2.opus
</region>

<region>
end=290047
hikey=e3
hivel=127
lokey=d#3
loop_end=226228
loop_mode=loop_continuous
loop_start=97654
loop_xfade=15579
lovel=1
lpc=rvTqQUIUj8L4fHRC8ZfXwRdIqkEr37jBu/QmQdD0h75IowVBXtqgwTw+fEF5u+LAAHjlQJNpUsATsJ3AHqm7QJnInr8QY9C+CvK1P/uKTMA8z4E90GdUQDMjKMBHnUQ/
lpc_rms=-23.33
offset=880
pitch_keycenter=e3
sample=SoloCello_tremolo_MF_E3.opus
</region>

<region>
end=288910
hikey=e4
hivel=127
lokey=d#4
loop_end=225341
loop_mode=loop_continuous
loop_start=97271
loop_xfade=15518
lovel=1
lpc=7uyWQRp/NMIa0SVCJtyzwb7MiEFRQqHBZgeDQaokF8GY7ApB9T4dwby38EAEbdrAWL/OQBYZ0z6j6cnAFO6rQPjti8D4KvtAVSLzwJzi8z+fGp29PXeIQNUJ0MC9HjlA
lpc_rms=-24.54
offset=256
pitch_keycenter=e4
sample=SoloCello_tremolo_MF_E4.opus
</region>

<region>
end=290878
hikey=e5
hivel=127
lokey=d#5
loop_end=226876
loop_mode=loop_continuous
loop_start=97934
loop_xfade=15624
lovel=1
lpc=pxKXQRdaCsLpgcJBNeQ2waVhDEHdeqDAdL22P+Ttbr9YlOtAUlUKwfDHjEDU71LAtJOTQEwmjb+i7ZDA+7dgQIWB9D9T6/w/NtwKwCTWM74k/6m/Nz3/P0bVWcD0/4tA
lpc_rms=-27.16
offset=3698
pitch_keycenter=e5
sample=SoloCello_tremolo_MF_E5.opus
</region>

<region>
end=315457
hikey=f#2
hivel=127
lokey=f2
loop_end=246047
loop_mode=loop_continuous
loop_start=106209
loop_xfade=16944
lovel=1
lpc=apmJQu5iMsMqJiFDPFKbwkY4f0JJiFXCpEqfQUeyS8EZVklBtr6UwWkR30H7dEPBsl9EwBM9gEFklgnCrZ+2QVLd47/yc0tBxAGUwXFsRr/QagZBMOXdQEZknsGHjyhB
lpc_rms=-21.44
offset=20
pitch_keycenter=f#2
sample=SoloCello_tremolo_MF_F#2.opus
</region>

<region>
end=283613
hikey=f#3
hivel=127
lokey=f3
loop_end=221209
loop_mode=loop_continuous
loop_start=95488
loop_xfade=15233
lovel=1
lpc=64fzQc/6jcKLG2dCvx3YwRCfs0G+5J3Bc+L4QOKzEkAHd78/Rx6Ewc32i0Ej6NTAf+sfQHBEEL0co26/rmBhv4NQk7/EyWJAERS1P4viycBgKyVAaapUQNZJrMCDHy1A
lpc_rms=-23.85
offset=875
pitch_keycenter=f#3
sample=SoloCello_tremolo_MF_F#3.opus
</region>

<region>
end=297919
hikey=f#4
hivel=127
lokey=f4
loop_end=232368
loop_mode=loop_continuous
loop_start=100305
loop_xfade=16002
lovel=1
lpc=BEU/QQPG5sGgwd9BzvKJwe1ybUEiNozBB55kQRX9+sB6QvZA7YoUwRYp0kAfgIzAb9WXQKAcLsAjQBu/0g6mP/mWlL+pdBRAiqQlwMNWbT/h7jk/Bog3PjhVp7+kvBc/
lpc_rms=-28.80
offset=1376
pitch_keycenter=f#4
sample=SoloCello_tremolo_MF_F#4.opus
</region>

<region>
end=299937
hikey=G6
hivel=127
lokey=f5
loop_end=233942
loop_mode=loop_continuous
loop_start=100984
loop_xfade=16110
lovel=1
lpc=MChzQdb608En/ZdBKpcYwQCOF0HLRuvA+6vuQOFfBME3CQtB1+rPwO73NUDxIDE/3OgvQM8lOcDBa0K/1WRrQLJfPcBb0nNAbtFmwHNzZECa4Jc+cFLmvvKpZcAelJlA
lpc_rms=-28.39
offset=406
pitch_keycenter=F#5
sample=SoloCello_tremolo_MF_F#5.opus
</region>

<region>
end=295846
hikey=g#2
hivel=127
lokey=g2
loop_end=230751
loop_mode=loop_continuous
loop_start=99607
loop_xfade=15891
lovel=1
lpc=5/wvQkf1zMKZZ4xCtXkpwdKMbkEEI8PBWcOQQHARFUHO48e/MkOOwZqzs0E4ACPBBh+Wv3rWJ0GsJyLB9RrvP/6Tsb/zi5BArTQ6wPuaZT+JgMG/i2+lQIpa4sDC5U1A
lpc_rms=-22.13
offset=450
pitch_keycenter=g#2
sample=SoloCello_tremolo_MF_G#2.opus
</region>

<region>
end=287245
hikey=g#3
hivel=127
lokey=g3
loop_end=224042
loop_mode=loop_continuous
loop_start=96711
loop_xfade=15429
lovel=1
lpc=JEPxQdvvlsLvO4tC0CgXwn5r9UGzG/vBgiWlQRxCMMFklIVBHHLLwVk9p0HX61XBwcsiQaH7kL8txQfBC9vGQFkGrT9g2L+/GCsfv7wgbr+msZO+J1KnQPdoAsEX+YVA
lpc_rms=-23.88
offset=220
pitch_keycenter=g#3
sample=SoloCello_tremolo_MF_G#3.opus
</region>

<region>
end=287921
hikey=g#4
hivel=127
lokey=g4
loop_end=224569
loop_mode=loop_continuous
loop_start=96938
loop_xfade=15465
lovel=1
lpc=1XBeQaVSBcJSwAJCcS20wayrm0EzF6DBwCOOQfJ2PcFTmOhARI6lwHNUnkC5DpnA1xZvP0gv/z/qJ3a/RlrnvQ8aIj9vCRS+m7gEP2zRn7+/J8u+p/1lQPqXmcAfRg1A
lpc_rms=-23.22
offset=928
pitch_keycenter=g#4
sample=SoloCello_tremolo_MF_G#4.opus
</region>
</group>

<group>
group_label=FF
lpc_hicc1=127
lpc_locc1=85

<region>
end=302507
hikey=a#2
hivel=127
lokey=a2
loop_end=235946
loop_mode=loop_continuous
loop_start=101849
loop_xfade=16248
lovel=1
lpc=dQAuQjRt1sJOB7ZCDBgXwl29tkHIrU/B7fSeP3kaAMFhBjFBu48DwcBCEUETMU/AhVqywM0hF0H08erAweeIP22YEUAUkPs/UfhQwJkIDMBF3uY/vkHrQNTITcGFM8lA
lpc_rms=-15.26
pitch_keycenter=a#2
sample=SoloCello_tremolo_FF_A#2.opus
</region>

<region>
end=289963
hikey=a#3
hivel=127
lokey=a3
loop_end=226162
loop_mode=loop_continuous
loop_start=97626
loop_xfade=15575
lovel=1
lpc=XWvVQZOZdsIQZkpCsOTIwRYmmEH+NnHBJCweQSeXn8DKPBO/QtsUwL6o/0At8K3At3S6v+CmE0Gr5DbB4TLfQCNslMA3SqRAr34TwD+Dkz9AC0TAY4U4QMIqZsDyQBZA
lpc_rms=-17.28
pitch_keycenter=a#3
sample=SoloCello_tremolo_FF_A#3.opus
</region>

<region>
end=292916
hikey=a#4
hivel=127
lokey=a4
loop_end=228465
loop_mode=loop_continuous
loop_start=98620
loop_xfade=15733
lovel=1
lpc=pF+dQMPpF8GC7PJAEWmOwJyGbECh2UjAjhETQGNzu78BU6s/iJ3dv1Sg2D8Byq+/E0CfP9Oig79iVE4/rtZYv2P9Jj7T92U/sU+9vg8YRb8MJyI/C8KwPiLi577/NmY+
lpc_rms=-25.91
pitch_keycenter=a#4
sample=SoloCello_tremolo_FF_A#4.opus
</region>

<region>
end=292667
hivel=127
key=c2
loop_end=228271
loop_mode=loop_continuous
loop_start=98536
loop_xfade=15720
lovel=1
lpc=ddchQkKBxsJ5PJlC4LCQwWO8F0GD8ifBl+NpQCyFIcHvJw1B2isiwF5r3UBA6f3AThDnP23fg0DXFYLArPHXv1hB6T/3NtBApuzjwIro/r/aD6VA6DCfP5Jr68CHtYtA
lpc_rms=-12.83
sample=SoloCello_tremolo_FF_C2.opus
</region>

<region>
end=292296
hikey=c3
hivel=127
lokey=b2
loop_end=227982
loop_mode=loop_continuous
loop_start=98411
loop_xfade=15700
lovel=1
lpc=hVDhQfVbhMKGXFVCsq67weKzg0GMvNjA9dCBv4+rrcCyt9ZAD3KNwCX3yED/krfAoke8P8XTiUAFGK7A1Cb3P92eKT/zhM2/9DxaQFnekMCQQeA/Ex7yP5tiGcAFll8/
lpc_rms=-15.14
pitch_keycenter=c3
sample=SoloCello_tremolo_FF_C3.opus
</region>

<region>
end=288630
hikey=c4
hivel=127
lokey=b3
loop_end=225122
loop_mode=loop_continuous
loop_start=97177
loop_xfade=15503
lovel=1
lpc=0+JRQQFM4MGY6bdBFmE6wTGqCUEB7wjB9PHJQI6kosDc8YRAuio5wKMcZUBt6YnAkN8BPy6tPEASgl2/d8DUv1oPKz8Ic6I/gmrWv/89az78p8Y+Rq7PPyo6G8CP2ZU/
lpc_rms=-17.47
pitch_keycenter=c4
sample=SoloCello_tremolo_FF_C4.opus
</region>

<region>
end=299272
hikey=c5
hivel=127
lokey=b4
loop_end=233423
loop_mode=loop_continuous
loop_start=100760
loop_xfade=16075
lovel=1
lpc=Q8D7QJO5iMEDp2tBeXbvwCoznUB6CZTAn32tQJO7hcBWtjk/j85Rv720PkAQBzHAuLzRP0ydR79uV8w+jfWpvqqc/76r2wBAHWPAv3YjFD7keUc+igUzvAcgwr2s/qw+
lpc_rms=-20.54
offset=252
pitch_keycenter=c5
sample=SoloCello_tremolo_FF_C5.opus
</region>

<region>
end=307912
hikey=d2
hivel=127
lokey=c#2
loop_end=240162
loop_mode=loop_continuous
loop_start=103669
loop_xfade=16539
lovel=1
lpc=can6QTjMnMICZIhC8hPewYLLZkEP/AfBRpN/QHjDM8HmOkFBHMTQwI2viEDp1AnANtJ/v8XniUC5G4DAaOVMP/KUqL5TYHpAEsZ3wNxHrb8WGgRAYlBmQAOB0MDiHjxA
lpc_rms=-16.85
pitch_keycenter=d2
sample=SoloCello_tremolo_FF_D2.opus
</region>

<region>
end=299347
hikey=d3
hivel=127
lokey=c#3
loop_end=233481
loop_mode=loop_continuous
loop_start=100785
loop_xfade=16079
lovel=1
lpc=sMeOQW3QH8KI7PBBOvI5wfvV20BdnNE+/3KewBJEKr6px9Q/NokYwO8+lED63WDAzMgCQHV4Kj/BAlLAT8AGQMtjAj8vbZK/9rKpPz1Vr78DMFg/n17WPhu0zb8NuEc/
lpc_rms=-19.26
pitch_keycenter=d3
sample=SoloCello_tremolo_FF_D3.opus
</region>

<region>
end=293195
hikey=d4
hivel=127
lokey=c#4
loop_end=228683
loop_mode=loop_continuous
loop_start=98714
loop_xfade=15748
lovel=1
lpc=WqwKQb1Sl8EeTHZBH4rtwPEErUC9/ZfABLJTQGPcG8DwH7k/T+bRvhONTz9NngHAj3WiP/Z5mz9QM+O/+tQzPhCJiT3MhI8/KsGNv5Dlob5jfdo/WgiXvxZQ/73AHZU+
lpc_rms=-18.77
offset=278
pitch_keycenter=d4
sample=SoloCello_tremolo_FF_D4.opus
</region>

<region>
end=292744
hikey=d5
hivel=127
lokey=c#5
loop_end=228331
loop_mode=loop_continuous
loop_start=98562
loop_xfade=15724
lovel=1
lpc=BvnQQH7sSMHrkClBD9vdwHNcr0DC7IrAmy2IQPKzhsC97WBAkSRQwFvHPkCKncq/PDBDPrB0KT/9jTG+srMdv93tPD/NRn4+7xXAv8/QAUB7eR2/lg36PRNpgr8iKYs/
lpc_rms=-21.75
pitch_keycenter=d5
sample=SoloCello_tremolo_FF_D5.opus
</region>

<region>
end=300698
hikey=e2
hivel=127
lokey=d#2
loop_end=234535
loop_mode=loop_continuous
loop_start=101240
loop_xfade=16151
lovel=1
lpc=2FshQtGK0sLJUcZCEFZIwsA7+UFeP5LBwuPOQE5wW8Ey+3pBou3YwBv87T+FdrQ+AegdwDj4r0DXlsDAjZMbQJ8/Vr++ul1A601ZvzAhvcCCo1hAP/LEQOHKIsFRBZdA
lpc_rms=-15.29
pitch_keycenter=e2
sample=SoloCello_tremolo_FF_E2.opus
</region>

<region>
end=292600
hikey=e3
hivel=127
lokey=d#3
loop_end=228219
loop_mode=loop_continuous
loop_start=98514
loop_xfade=15716
lovel=1
lpc=Mk7UQShegsLWPGpCaZ7wwXcTpEFI2JDBMVeLQaDBn8FpO4ZBf+MkwfOCA0GJWRbBVKkGQdBF1r6sLMbAjDl3QF7Pv7+iCp5Ad3DWwNP7mUCQBXnAB/+OQGh3kMCOXP4/
lpc_rms=-16.71
pitch_keycenter=e3
sample=SoloCello_tremolo_FF_E3.opus
</region>

<region>
end=293246
hikey=e4
hivel=127
lokey=d#4
loop_end=228723
loop_mode=loop_continuous
loop_start=98731
loop_xfade=15751
lovel=1
lpc=bimaQYkRKsIP/v9B4tRFwZ4/KEHTvzvBnC3xQCinoMBHVBxA9hDXPl3Qgz/JmDjAzYVaPwOaTEAu2WnABbvCP5cf8b/jz4lAq1p4wJqLfj+G6GY+zxsGQNSja8Bbosw/
lpc_rms=-13.86
offset=154
pitch_keycenter=e4
sample=SoloCello_tremolo_FF_E4.opus
</region>

<region>
end=295033
hikey=e5
hivel=127
lokey=d#5
loop_end=230117
loop_mode=loop_continuous
loop_start=99333
loop_xfade=15847
lovel=1
lpc=AEyAQTXh/sF/hO1BuEelwR5wbkFunRLBiknOQM14fsDPCb2+roHkP9VDLT8d3jTAUwgNQHQEtz8eMUPA5a2oQCUe/sDSZB5BnUkUwaosG0G/FwzB8N4DQbIetcAD/w1A
lpc_rms=-14.10
offset=123
pitch_keycenter=e5
sample=SoloCello_tremolo_FF_E5.opus
</region>

<region>
end=297584
hikey=f#2
hivel=127
lokey=f2
loop_end=232106
loop_mode=loop_continuous
loop_start=100192
loop_xfade=15984
lovel=1
lpc=NxI0Qn7n5cI/cc1CNqA5wv3Z4EEJFHLBUY8PQC22RMGnDYBBbrIZwc2KGUGjT53AyGAOwO78r0B7sNTApNI3QNzFPz/oZZJAt8ewwKMhXcDENlJANFqxQDkkE8HLa4tA
lpc_rms=-14.67
offset=33
pitch_keycenter=f#2
sample=SoloCello_tremolo_FF_F#2.opus
</region>

<region>
end=305210
hikey=f#3
hivel=127
lokey=f3
loop_end=238054
loop_mode=loop_continuous
loop_start=102759
loop_xfade=16394
lovel=1
lpc=9lO0QZsRUcJYLzNCd6aywe5qY0GvhBfBuuzpQMVTQsE+bjRBhvnmwJeHD0EuCSPBtpy7QH0Anb4HTa6/kowjwAH3i0ACbYs+QgtVwCeXZT/dhxxAzg+vvwwBab90NzQ/
lpc_rms=-17.12
pitch_keycenter=f#3
sample=SoloCello_tremolo_FF_F#3.opus
</region>

<region>
end=294901
hikey=f#4
hivel=127
lokey=f4
loop_end=230014
loop_mode=loop_continuous
loop_start=99288
loop_xfade=15840
lovel=1
lpc=acMQQZ6mncGQv4tBQuQswSL8A0Htc/jANy7ZQO4KtcB6lp5A8yFUwAoR8T+5YL2/kxumP0p/hb7CrVC/3OXcvc+clT5GwNM/U4IqwLm14D9Ghqu+G4M8PyyTSL9yn888
lpc_rms=-19.63
offset=76
pitch_keycenter=f#4
sample=SoloCello_tremolo_FF_F#4.opus
</region>

<region>
end=294747
hikey=G6
hivel=127
lokey=f5
loop_end=229893
loop_mode=loop_continuous
loop_start=99237
loop_xfade=15831
lovel=1
lpc=ZoP9QBYuXcGqaTNB4xf9wBlYs0AZIP2/rOiHP02JBsAtsPU/KffuvS+Tsj/w6gTAqPuqPjKRFECLwGHAe1qHQJhihMA3/1lAhFs0wHXfgkCYaIPAwY4gQOo/mD7Uc92+
lpc_rms=-21.41
offset=575
pitch_keycenter=F#5
sample=SoloCello_tremolo_FF_F#5.opus
</region>

<region>
end=297994
hikey=g#2
hivel=127
lokey=g2
loop_end=232426
loop_mode=loop_continuous
loop_start=100330
loop_xfade=16006
lovel=1
lpc=GjYnQtV42MInecxC0CpcwjtcHUK+sN3BR1RbQYWbmMHyW7lBamaDwbOaJ0HhcmzAjwygwFS2NkFu8U3BIQsQQf2ohcDYbs1AeGX/wAI9eT7oP01A6DOCQMayC8FwtIRA
lpc_rms=-15.08
pitch_keycenter=g#2
sample=SoloCello_tremolo_FF_G#2.opus
</region>

<region>
end=298846
hikey=g#3
hivel=127
lokey=g3
loop_end=233091
loop_mode=loop_continuous
loop_start=100617
loop_xfade=16052
lovel=1
lpc=j+C5QcaSYsLtN01C7U7kwUeaq0ErWZLBWypkQT3tFMH2aANA5zgIwNn710BAcKDAy6hCv6/k+ECK+S7BB/PAQMwtWcCWda5AjCduwIshjj9E3m+/w5dQQDBRt8BCWz9A
lpc_rms=-17.71
pitch_keycenter=g#3
sample=SoloCello_tremolo_FF_G#3.opus
</region>

<region>
end=300268
hikey=g#4
hivel=127
lokey=g4
loop_end=234200
loop_mode=loop_continuous
loop_start=101095
loop_xfade=16128
lovel=1
lpc=Um5dQe1E/MFkTeNBN8eRwcOrXkFd8jDBDSQqQY/FMcFGqBhBluPQwJYUkEBnFj7ALUr2vqn67z91f98+M4rhvqlnvL52Zp4+tQtMvzQ+Wb+A3jtAsreWv/ukjb+pvEQ/
lpc_rms=-15.77
pitch_keycenter=g#4
sample=SoloCello_tremolo_FF_G#4.opus
</region>
</group>